<?xml version='1.0' encoding='utf-8'?>
<svg xmlns="http://www.w3.org/2000/svg" width="1920" height="1080" viewBox="0 0 1920 1080" data-theme="dark">
  <style>
        @font-face {
            font-family: 'Inter';
            src: url('assets/fonts/Inter-Regular.ttf') format('truetype');
            font-weight: 400;
            font-style: normal;
            font-display: swap;
        }
        @font-face {
            font-family: 'Inter';
            src: url('assets/fonts/Inter-Bold.ttf') format('truetype');
            font-weight: 600;
            font-style: normal;
            font-display: swap;
        }
        @font-face {
            font-family: 'Inter';
            src: url('assets/fonts/Inter-Bold.ttf') format('truetype');
            font-weight: 800;
            font-style: normal;
            font-display: swap;
        }
        
:root {
    --background: #0f172a;
    --panel: #1e293b;
    --primary-text: #f1f5f9;
    --muted-text: #94a3b8;
    --inverse-text: #0f172a;
    --border: #334155;
    --shadow-color: #000000;
    --icon-pad-bg: #1e293b;
    --art-glow: #7dd3fc;
    --art-glow-opacity: 0.18;
    --art-sheen: #ffffff;
    --art-sheen-opacity: 0.18;
    --art-shadow: #000000;
    --art-shadow-opacity: 0.28;
    --art-muted-line: #64748b;
    --art-panel-tint: #1e293b;
    --font-family: 'Inter', 'Segoe UI', 'Kalam', Roboto, Helvetica, Arial, sans-serif;
    --radius-xl: 16px;
    --font-family-headline: 'Inter', 'Segoe UI', 'Kalam', Roboto, Helvetica, Arial, sans-serif;
    --font-family-body: 'Inter', 'Segoe UI', 'Kalam', Roboto, Helvetica, Arial, sans-serif;
    --font-heading: 'Inter', 'Segoe UI', 'Kalam', Roboto, Helvetica, Arial, sans-serif;
    --font-body: 'Inter', 'Segoe UI', 'Kalam', Roboto, Helvetica, Arial, sans-serif;
    --font-size-h1: 56px;
    --font-size-h2: 40px;
    --font-size-h3: 28px;
    --font-size-body: 24px;
    --font-size-caption: 18px;
    --secondary-text: var(--muted-text);
    --panel-border: var(--border);
    --font-weight-normal: 400;
    --font-weight-medium: 500;
    --font-weight-semibold: 600;
    --font-weight-bold: 700;
    --spacing-gutter-pct: 0.07;
    --spacing-top-pct: 0.15;
    --spacing-bottom-pct: 0.07;
    --spacing-title-y-pct: 0.055;
    --accent-1: #60a5fa;
    --accent-2: #4ade80;
    --accent-3: #f97316;
    --accent-4: #a78bfa;
    --accent-5: #38bdf8;
    --accent-6: #94a3b8;
}
:root[data-theme="dark"] {
    --background: #0f172a;
    --panel: #1e293b;
    --primary-text: #f1f5f9;
    --muted-text: #94a3b8;
    --inverse-text: #0f172a;
    --border: #334155;
    --shadow-color: #000000;
    --icon-pad-bg: #1e293b;
    --art-glow: #7dd3fc;
    --art-glow-opacity: 0.18;
    --art-sheen: #ffffff;
    --art-sheen-opacity: 0.18;
    --art-shadow: #000000;
    --art-shadow-opacity: 0.28;
    --art-muted-line: #64748b;
    --art-panel-tint: #1e293b;
    --accent-1: #60a5fa;
    --accent-2: #4ade80;
    --accent-3: #f97316;
    --accent-4: #a78bfa;
    --accent-5: #38bdf8;
    --accent-6: #94a3b8;
}
:root[data-theme="light"] {
    --background: #f8fafc;
    --panel: #ffffff;
    --primary-text: #0f172a;
    --muted-text: #64748b;
    --inverse-text: #ffffff;
    --border: #e2e8f0;
    --shadow-color: #000000;
    --icon-pad-bg: #1e293b;
    --art-glow: #0891b2;
    --art-glow-opacity: 0.10;
    --art-sheen: #ffffff;
    --art-sheen-opacity: 0.34;
    --art-shadow: #0f172a;
    --art-shadow-opacity: 0.14;
    --art-muted-line: #94a3b8;
    --art-panel-tint: #f1f5f9;
    --accent-1: #2563eb;
    --accent-2: #16a34a;
    --accent-3: #ea580c;
    --accent-4: #7c3aed;
    --accent-5: #0284c7;
    --accent-6: #475569;
}</style>
  <rect x="0" y="0" width="1.92E+3" height="1.08E+3" fill="#252a34" stroke="none" id="programmatic_background"/>
  <line id="HEADER_DECOR" x1="960.0" x2="1080.0" y1="135.0" y2="135.0" stroke="var(--accent-1)" stroke-width="6" stroke-linecap="round"/>
  <defs>
    <pattern id="svg5b5470c2-napkin-hatch" patternUnits="userSpaceOnUse" width="12" height="12">
      <path d="M -3 12 L 12 -3 M 0 15 L 15 0" fill="none" stroke="var(--primary-text)" stroke-width="1" stroke-opacity="0.05"/>
    </pattern>
    <radialGradient id="svg5b5470c2-universal-edge-vignette" cx="50%" cy="50%" r="72%">
      <stop offset="0%" stop-color="var(--background)" stop-opacity="0"/>
      <stop offset="72%" stop-color="var(--background)" stop-opacity="0.12"/>
      <stop offset="100%" stop-color="var(--primary-text)" stop-opacity="0.08"/>
    </radialGradient>
    <linearGradient id="svg5b5470c2-universal-surface-sheen" x1="0%" y1="0%" x2="100%" y2="100%">
      <stop offset="0%" stop-color="var(--art-sheen)" stop-opacity="var(--art-sheen-opacity)"/>
      <stop offset="46%" stop-color="var(--art-sheen)" stop-opacity="0.035"/>
      <stop offset="100%" stop-color="var(--art-panel-tint)" stop-opacity="0.14"/>
    </linearGradient>
    <radialGradient id="svg5b5470c2-universal-icon-aura" cx="50%" cy="42%" r="64%">
      <stop offset="0%" stop-color="var(--art-glow)" stop-opacity="var(--art-glow-opacity)"/>
      <stop offset="100%" stop-color="var(--background)" stop-opacity="0"/>
    </radialGradient>
    <filter id="svg5b5470c2-text-glow" x="-20%" y="-20%" width="140%" height="140%">
      <feDropShadow dx="0" dy="0" stdDeviation="2" flood-color="#000000" flood-opacity="0.4"/>
    </filter>
    <filter id="svg5b5470c2-shadow" x="-30%" y="-30%" width="160%" height="160%">
      <feDropShadow dx="0" dy="2" stdDeviation="3" flood-color="#000000" flood-opacity="0.08"/>
      <feDropShadow dx="0" dy="6" stdDeviation="10" flood-color="#000000" flood-opacity="0.12"/>
    </filter>
    <marker id="svg5b5470c2-arrowhead" markerWidth="10" markerHeight="7" refX="9" refY="3.5" orient="auto" markerUnits="strokeWidth">
      <polygon points="0 0, 10 3.5, 0 7" fill="var(--muted-text)" opacity="0.6"/>
    </marker>
  </defs>
  <rect width="100%" height="100%" fill="var(--background)" id="CANVAS_BG"/>
  <rect width="100%" height="100%" fill="url(#svg5b5470c2-napkin-hatch)"/>
  <rect id="UNIVERSAL_EDGE_VIGNETTE" width="100%" height="100%" fill="url(#svg5b5470c2-universal-edge-vignette)" opacity="0.62"/>
  <text id="TITLE" x="960.0" y="59" text-anchor="middle" font-weight="800" font-size="63" fill="#f1f5f9" style="font-size: 60px; font-family: Inter, Segoe UI, Kalam, Roboto, Helvetica, Arial, sans-serif; font-weight: 700; letter-spacing:-1.2px;" data-final-font-size="60">
    <tspan x="960.0" dy="68.00px">The Three Landscapes of Badajoz UFOs</tspan>
  </text>
  <rect id="TITLE_FRAME" x="134" y="59" width="1652" height="103" fill="none"/>
  <g id="DIAGRAM_SCALER" transform="translate(50.3, 31.7) scale(0.95)">
    <g transform="translate(960.0, 225.0)">
      <g transform="translate(0.0, 0.0)">
        <rect id="ITEM_1_BG" x="-600" y="0" width="1200" height="172.5" rx="18" fill="var(--accent-6)" stroke="var(--accent-1)" stroke-width="2" fill-opacity="0.4"/>
        <g transform="translate(-420.0, 52.5)">
          <text id="ITEM_1_HEAD" font-weight="bold" font-size="33" fill="var(--primary-text)" x="120.0" y="-25.0" data-bg-id="ITEM_1_BG" fill-opacity="1.0" stroke="none" style="font-size: 30px; font-family: Inter, Segoe UI, Kalam, Roboto, Helvetica, Arial, sans-serif; font-weight: 700; letter-spacing:-0.4px;" data-final-font-size="30">
            <tspan x="120.0" dy="25.75px">Aviation Landscape</tspan>
          </text>
          <rect id="ITEM_1_HEAD_FRAME" x="120" y="-25" width="850" height="35" fill="none"/>
          <text id="ITEM_1_BODY" font-size="22.5" fill="var(--primary-text)" x="120.0" y="15.0" data-bg-id="ITEM_1_BG" style="font-size: 26px; font-family: Inter, Segoe UI, Kalam, Roboto, Helvetica, Arial, sans-serif; font-weight: 400;" data-final-font-size="26">
            <tspan x="120.0" dy="20.84px">Military aircraft and flight</tspan>
            <tspan x="120.0" dy="29.90px">paths near Talavera la Real</tspan>
          </text>
          <rect id="ITEM_1_BODY_FRAME" x="120" y="15" width="380" height="60" fill="none"/>
        </g>
        <circle id="ITEM_1_PAD" cx="-450.0" cy="90.0" r="50" fill="var(--icon-pad-bg)" stroke="var(--primary-text)" opacity="0.9" fill-opacity="0.9" stroke-width="2"/>
        <circle id="ITEM_1_PAD_INNER" cx="-450.0" cy="90.0" r="39.00" fill="var(--accent-6)" fill-opacity="0.22"/>
        <circle cx="-450.0" cy="90.0" r="40.0" fill="none" stroke="var(--accent-1)" stroke-width="3" stroke-dasharray="6 4"/>
        <g id="ITEM_1_ICON" transform="translate(-482.0, 58.0)" data-icon-size="64" stroke-dasharray="6 4">
          <g transform="translate(-14.155963302752294,-13.440366972477065) scale(3.81651376146789)" vector-effect="non-scaling-stroke" stroke-width="2.48" stroke-linecap="round" stroke-linejoin="round" stroke-opacity="1.0">
            <path d="M17.8 19.2 16 11l3.5-3.5C21 6 21.5 4 21 3c-1-.5-3 0-4.5 1.5L13 8 4.8 6.2c-.5-.1-.9.1-1.1.5l-.3.5c-.2.5-.1 1 .3 1.3L9 12l-2 3H4l-1 1 3 2 2 3 1-1v-3l3-2 3.5 5.3c.3.4.8.5 1.3.3l.5-.2c.4-.3.6-.7.5-1.2z" vector-effect="non-scaling-stroke" fill="none" stroke="#f1f5f9"/>
          </g>
        </g>
      </g>
      <g transform="translate(0.0, 202.5)">
        <rect id="ITEM_2_BG" x="-600" y="0" width="1200" height="172.5" rx="18" fill="var(--accent-1)" stroke="var(--accent-2)" stroke-width="2" fill-opacity="0.4"/>
        <g transform="translate(-420.0, 52.5)">
          <text id="ITEM_2_HEAD" font-weight="bold" font-size="33" fill="var(--primary-text)" x="120.0" y="-25.0" data-bg-id="ITEM_2_BG" fill-opacity="1.0" stroke="none" style="font-size: 30px; font-family: Inter, Segoe UI, Kalam, Roboto, Helvetica, Arial, sans-serif; font-weight: 700; letter-spacing:-0.4px;" data-final-font-size="30">
            <tspan x="120.0" dy="25.75px">Rural Viewing Landscape</tspan>
          </text>
          <rect id="ITEM_2_HEAD_FRAME" x="120" y="-25" width="850" height="35" fill="none"/>
          <text id="ITEM_2_BODY" font-size="22.5" fill="var(--primary-text)" x="120.0" y="15.0" data-bg-id="ITEM_2_BG" style="font-size: 26px; font-family: Inter, Segoe UI, Kalam, Roboto, Helvetica, Arial, sans-serif; font-weight: 400;" data-final-font-size="26">
            <tspan x="120.0" dy="20.84px">Broad horizons and isolated</tspan>
            <tspan x="120.0" dy="29.90px">roads with low light pollution</tspan>
          </text>
          <rect id="ITEM_2_BODY_FRAME" x="120" y="15" width="380" height="60" fill="none"/>
        </g>
        <circle id="ITEM_2_PAD" cx="-450.0" cy="90.0" r="50" fill="var(--icon-pad-bg)" stroke="var(--primary-text)" opacity="0.9" fill-opacity="0.9" stroke-width="2"/>
        <circle id="ITEM_2_PAD_INNER" cx="-450.0" cy="90.0" r="39.00" fill="var(--accent-1)" fill-opacity="0.22"/>
        <circle cx="-450.0" cy="90.0" r="40.0" fill="none" stroke="var(--accent-1)" stroke-width="3" stroke-dasharray="6 4"/>
        <g id="ITEM_2_ICON" transform="translate(-482.0, 58.0)" data-icon-size="64" stroke-dasharray="6 4">
          <g transform="translate(-14.222222222222221,-14.222222222222221) scale(3.8518518518518516)" vector-effect="non-scaling-stroke" fill="#f1f5f9" fill-opacity="1.0" stroke="none">
            <path fill="#f1f5f9" d="M10 2L8 8h3V2zm3 0v6h3l-2-6zM2 9v1h2v1h2v-1h12l.06 1H20v-1h2V9zm5 2L3.34 22H11V11zm6 0v11h7.66L17 11z" vector-effect="non-scaling-stroke" stroke="none"/>
          </g>
        </g>
      </g>
      <g transform="translate(0.0, 405.0)">
        <rect id="ITEM_3_BG" x="-600" y="0" width="1200" height="172.5" rx="18" fill="var(--accent-2)" stroke="var(--accent-3)" stroke-width="2" fill-opacity="0.4"/>
        <g transform="translate(-420.0, 52.5)">
          <text id="ITEM_3_HEAD" font-weight="bold" font-size="33" fill="var(--primary-text)" x="120.0" y="-25.0" data-bg-id="ITEM_3_BG" fill-opacity="1.0" stroke="none" style="font-size: 30px; font-family: Inter, Segoe UI, Kalam, Roboto, Helvetica, Arial, sans-serif; font-weight: 700; letter-spacing:-0.4px;" data-final-font-size="30">
            <tspan x="120.0" dy="25.75px">Archive Landscape</tspan>
          </text>
          <rect id="ITEM_3_HEAD_FRAME" x="120" y="-25" width="850" height="35" fill="none"/>
          <text id="ITEM_3_BODY" font-size="22.5" fill="var(--primary-text)" x="120.0" y="15.0" data-bg-id="ITEM_3_BG" style="font-size: 26px; font-family: Inter, Segoe UI, Kalam, Roboto, Helvetica, Arial, sans-serif; font-weight: 400;" data-final-font-size="26">
            <tspan x="120.0" dy="20.84px">Declassified files preserved</tspan>
            <tspan x="120.0" dy="29.90px">in the Spanish Defence Library</tspan>
          </text>
          <rect id="ITEM_3_BODY_FRAME" x="120" y="15" width="380" height="60" fill="none"/>
        </g>
        <circle id="ITEM_3_PAD" cx="-450.0" cy="90.0" r="50" fill="var(--icon-pad-bg)" stroke="var(--primary-text)" opacity="0.9" fill-opacity="0.9" stroke-width="2"/>
        <circle id="ITEM_3_PAD_INNER" cx="-450.0" cy="90.0" r="39.00" fill="var(--accent-2)" fill-opacity="0.22"/>
        <circle cx="-450.0" cy="90.0" r="40.0" fill="none" stroke="var(--accent-2)" stroke-width="3" stroke-dasharray="6 4"/>
        <g id="ITEM_3_ICON" transform="translate(-482.0, 58.0)" data-icon-size="64" stroke-dasharray="6 4">
          <g transform="translate(-12.571428571428571,-15.357142857142858) scale(2.7857142857142856)">
            <path d="M15.385 7.39062L12.9075 4.915C12.3219 4.32875 11.5275 4 10.6987 4H4.125C2.95125 4 2 4.95125 2 6.125V13.5H12.985H30V10.1375C30 8.96375 29.0488 8.0125 27.875 8.0125H16.8875C16.3237 8.0125 15.7838 7.78875 15.385 7.39062Z" fill="#FFB02E"/>
            <path d="M27.875 30H4.125C2.95125 30 2 29.0545 2 27.8878V13.1122C2 11.9455 2.95125 11 4.125 11H27.875C29.0488 11 30 11.9455 30 13.1122V27.8878C30 29.0545 29.0488 30 27.875 30Z" fill="#FCD53F"/>
          </g>
        </g>
      </g>
      <g transform="translate(0.0, 607.5)">
        <rect id="ITEM_4_BG" x="-600" y="0" width="1200" height="172.5" rx="18" fill="var(--accent-3)" stroke="var(--accent-4)" stroke-width="2" fill-opacity="0.4"/>
        <g transform="translate(-420.0, 52.5)">
          <text id="ITEM_4_HEAD" font-weight="bold" font-size="33" fill="var(--primary-text)" x="120.0" y="-25.0" data-bg-id="ITEM_4_BG" fill-opacity="1.0" stroke="none" style="font-size: 30px; font-family: Inter, Segoe UI, Kalam, Roboto, Helvetica, Arial, sans-serif; font-weight: 700; letter-spacing:-0.4px;" data-final-font-size="30">
            <tspan x="120.0" dy="25.75px">Provincial Boundary</tspan>
          </text>
          <rect id="ITEM_4_HEAD_FRAME" x="120" y="-25" width="850" height="35" fill="none"/>
          <text id="ITEM_4_BODY" font-size="22.5" fill="var(--primary-text)" x="120.0" y="15.0" data-bg-id="ITEM_4_BG" style="font-size: 26px; font-family: Inter, Segoe UI, Kalam, Roboto, Helvetica, Arial, sans-serif; font-weight: 400;" data-final-font-size="26">
            <tspan x="120.0" dy="20.84px">Cases straddling the border</tspan>
            <tspan x="120.0" dy="29.90px">between Badajoz and Cáceres</tspan>
          </text>
          <rect id="ITEM_4_BODY_FRAME" x="120" y="15" width="380" height="60" fill="none"/>
        </g>
        <circle id="ITEM_4_PAD" cx="-450.0" cy="90.0" r="50" fill="var(--icon-pad-bg)" stroke="var(--primary-text)" opacity="0.9" fill-opacity="0.9" stroke-width="2"/>
        <circle id="ITEM_4_PAD_INNER" cx="-450.0" cy="90.0" r="39.00" fill="var(--accent-3)" fill-opacity="0.22"/>
        <circle cx="-450.0" cy="90.0" r="40.0" fill="none" stroke="var(--accent-3)" stroke-width="3" stroke-dasharray="6 4"/>
        <g id="ITEM_4_ICON" transform="translate(-482.0, 58.0)" data-icon-size="64" stroke-dasharray="6 4">
          <g transform="translate(-10.305084745762713,-10.305084745762711) scale(3.5254237288135593)" vector-effect="non-scaling-stroke" stroke-width="2.48" stroke-linecap="round" stroke-linejoin="round" stroke-opacity="1.0">
            <path d="M12 13v8" vector-effect="non-scaling-stroke" fill="none" stroke="#f1f5f9"/>
            <path d="M12 3v3" vector-effect="non-scaling-stroke" fill="none" stroke="#f1f5f9"/>
            <path d="M18 6a2 2 0 0 1 1.387.56l2.307 2.22a1 1 0 0 1 0 1.44l-2.307 2.22A2 2 0 0 1 18 13H6a2 2 0 0 1-1.387-.56l-2.306-2.22a1 1 0 0 1 0-1.44l2.306-2.22A2 2 0 0 1 6 6z" vector-effect="non-scaling-stroke" fill="none" stroke="#f1f5f9"/>
          </g>
        </g>
      </g>
    </g>
  </g>
</svg>
