<?xml version='1.0' encoding='utf-8'?>
<svg xmlns="http://www.w3.org/2000/svg" width="1920" height="1080" viewBox="0 0 1920 1080" data-theme="light">
  <style>
        @font-face {
            font-family: 'Inter';
            src: url('assets/fonts/Inter-Regular.ttf') format('truetype');
            font-weight: 400;
            font-style: normal;
            font-display: swap;
        }
        @font-face {
            font-family: 'Inter';
            src: url('assets/fonts/Inter-Bold.ttf') format('truetype');
            font-weight: 600;
            font-style: normal;
            font-display: swap;
        }
        @font-face {
            font-family: 'Inter';
            src: url('assets/fonts/Inter-Bold.ttf') format('truetype');
            font-weight: 800;
            font-style: normal;
            font-display: swap;
        }
        
:root {
    --background: #f8fafc;
    --panel: #ffffff;
    --primary-text: #0f172a;
    --muted-text: #64748b;
    --inverse-text: #ffffff;
    --border: #e2e8f0;
    --shadow-color: #000000;
    --icon-pad-bg: #1e293b;
    --art-glow: #0891b2;
    --art-glow-opacity: 0.10;
    --art-sheen: #ffffff;
    --art-sheen-opacity: 0.34;
    --art-shadow: #0f172a;
    --art-shadow-opacity: 0.14;
    --art-muted-line: #94a3b8;
    --art-panel-tint: #f1f5f9;
    --font-family: 'Inter', 'Segoe UI', 'Kalam', Roboto, Helvetica, Arial, sans-serif;
    --radius-xl: 16px;
    --font-family-headline: 'Inter', 'Segoe UI', 'Kalam', Roboto, Helvetica, Arial, sans-serif;
    --font-family-body: 'Inter', 'Segoe UI', 'Kalam', Roboto, Helvetica, Arial, sans-serif;
    --font-heading: 'Inter', 'Segoe UI', 'Kalam', Roboto, Helvetica, Arial, sans-serif;
    --font-body: 'Inter', 'Segoe UI', 'Kalam', Roboto, Helvetica, Arial, sans-serif;
    --font-size-h1: 56px;
    --font-size-h2: 40px;
    --font-size-h3: 28px;
    --font-size-body: 24px;
    --font-size-caption: 18px;
    --secondary-text: var(--muted-text);
    --panel-border: var(--border);
    --font-weight-normal: 400;
    --font-weight-medium: 500;
    --font-weight-semibold: 600;
    --font-weight-bold: 700;
    --spacing-gutter-pct: 0.07;
    --spacing-top-pct: 0.15;
    --spacing-bottom-pct: 0.07;
    --spacing-title-y-pct: 0.055;
    --accent-1: #4f46e5;
    --accent-2: #059669;
    --accent-3: #db2777;
    --accent-4: #d97706;
    --accent-5: #0284c7;
    --accent-6: #7c3aed;
    --accent-7: #dc2626;
    --accent-8: #0d9488;
    --accent-9: #ea580c;
    --accent-10: #c026d3;
}
:root[data-theme="dark"] {
    --background: #0f172a;
    --panel: #1e293b;
    --primary-text: #f1f5f9;
    --muted-text: #94a3b8;
    --inverse-text: #0f172a;
    --border: #334155;
    --shadow-color: #000000;
    --icon-pad-bg: #1e293b;
    --art-glow: #7dd3fc;
    --art-glow-opacity: 0.18;
    --art-sheen: #ffffff;
    --art-sheen-opacity: 0.18;
    --art-shadow: #000000;
    --art-shadow-opacity: 0.28;
    --art-muted-line: #64748b;
    --art-panel-tint: #1e293b;
    --accent-1: #a5b4fc;
    --accent-2: #34d399;
    --accent-3: #f472b6;
    --accent-4: #fbbf24;
    --accent-5: #38bdf8;
    --accent-6: #c084fc;
    --accent-7: #f87171;
    --accent-8: #2dd4bf;
    --accent-9: #fb923c;
    --accent-10: #e879f9;
}
:root[data-theme="light"] {
    --background: #f8fafc;
    --panel: #ffffff;
    --primary-text: #0f172a;
    --muted-text: #64748b;
    --inverse-text: #ffffff;
    --border: #e2e8f0;
    --shadow-color: #000000;
    --icon-pad-bg: #1e293b;
    --art-glow: #0891b2;
    --art-glow-opacity: 0.10;
    --art-sheen: #ffffff;
    --art-sheen-opacity: 0.34;
    --art-shadow: #0f172a;
    --art-shadow-opacity: 0.14;
    --art-muted-line: #94a3b8;
    --art-panel-tint: #f1f5f9;
    --accent-1: #4f46e5;
    --accent-2: #059669;
    --accent-3: #db2777;
    --accent-4: #d97706;
    --accent-5: #0284c7;
    --accent-6: #7c3aed;
    --accent-7: #dc2626;
    --accent-8: #0d9488;
    --accent-9: #ea580c;
    --accent-10: #c026d3;
}</style>
  <rect x="0" y="0" width="1.92E+3" height="1.08E+3" fill="#252a34" stroke="none" id="programmatic_background"/>
  <line id="HEADER_DECOR" x1="960.0" x2="1080.0" y1="135.0" y2="135.0" stroke="var(--accent-1)" stroke-width="6" stroke-linecap="round"/>
  <defs>
    <pattern id="svgd1203a16-napkin-hatch" patternUnits="userSpaceOnUse" width="12" height="12">
      <path d="M -3 12 L 12 -3 M 0 15 L 15 0" fill="none" stroke="var(--primary-text)" stroke-width="1" stroke-opacity="0.05"/>
    </pattern>
    <filter id="svgd1203a16-shadow" x="-30%" y="-30%" width="160%" height="160%">
      <feDropShadow dx="0" dy="2" stdDeviation="3" flood-color="#000000" flood-opacity="0.08"/>
      <feDropShadow dx="0" dy="6" stdDeviation="10" flood-color="#000000" flood-opacity="0.12"/>
    </filter>
    <marker id="svgd1203a16-arrowhead" markerWidth="10" markerHeight="10" refX="9" refY="5" orient="auto">
      <path d="M 0 0 L 10 5 L 0 10 Z" fill="var(--accent-1)"/>
    </marker>
    <filter id="svgd1203a16-text-glow" x="-20%" y="-20%" width="140%" height="140%">
      <feDropShadow dx="0" dy="0" stdDeviation="2" flood-color="#000000" flood-opacity="0.4"/>
    </filter>
    <radialGradient id="svgd1203a16-universal-edge-vignette" cx="50%" cy="50%" r="72%">
      <stop offset="0%" stop-color="var(--background)" stop-opacity="0"/>
      <stop offset="72%" stop-color="var(--background)" stop-opacity="0.12"/>
      <stop offset="100%" stop-color="var(--primary-text)" stop-opacity="0.08"/>
    </radialGradient>
    <linearGradient id="svgd1203a16-universal-surface-sheen" x1="0%" y1="0%" x2="100%" y2="100%">
      <stop offset="0%" stop-color="var(--art-sheen)" stop-opacity="var(--art-sheen-opacity)"/>
      <stop offset="46%" stop-color="var(--art-sheen)" stop-opacity="0.035"/>
      <stop offset="100%" stop-color="var(--art-panel-tint)" stop-opacity="0.14"/>
    </linearGradient>
    <radialGradient id="svgd1203a16-universal-icon-aura" cx="50%" cy="42%" r="64%">
      <stop offset="0%" stop-color="var(--art-glow)" stop-opacity="var(--art-glow-opacity)"/>
      <stop offset="100%" stop-color="var(--background)" stop-opacity="0"/>
    </radialGradient>
    <linearGradient id="svgd1203a16-myth-card-sheen" x1="0%" y1="0%" x2="100%" y2="100%">
      <stop offset="0%" stop-color="var(--inverse-text)" stop-opacity="0.18"/>
      <stop offset="56%" stop-color="var(--inverse-text)" stop-opacity="0.03"/>
      <stop offset="100%" stop-color="var(--background)" stop-opacity="0.12"/>
    </linearGradient>
  </defs>
  <rect width="100%" height="100%" fill="var(--background)" id="CANVAS_BG"/>
  <rect width="100%" height="100%" fill="url(#svgd1203a16-napkin-hatch)"/>
  <rect id="UNIVERSAL_EDGE_VIGNETTE" width="100%" height="100%" fill="url(#svgd1203a16-universal-edge-vignette)" opacity="0.62"/>
  <text id="TITLE" x="960.0" y="59" text-anchor="middle" font-weight="800" font-size="56" fill="#0f172a" style="font-size: 60px; font-family: Inter, Segoe UI, Kalam, Roboto, Helvetica, Arial, sans-serif; font-weight: 700; letter-spacing:-1.2px;" data-final-font-size="60">
    <tspan x="960.0" dy="68.00px">Evaluating Córdoba UFO Evidence</tspan>
  </text>
  <rect id="TITLE_FRAME" x="134" y="59" width="1652" height="103" fill="none"/>
  <g transform="translate(0, 190) scale(1.0)">
    <path d="M 920 -8 C 950 80 950 720 920 808" stroke="var(--primary-text)" stroke-width="2" stroke-opacity="0.10" fill="none"/>
    <path d="M 1000 -8 C 970 80 970 720 1000 808" stroke="var(--primary-text)" stroke-width="2" stroke-opacity="0.10" fill="none"/>
    <text x="480.0" y="0" text-anchor="middle" font-weight="900" font-size="52" fill="var(--accent-1)">MYTHS</text>
    <text x="1440.0" y="0" text-anchor="middle" font-weight="900" font-size="52" fill="var(--accent-2)">REALITY</text>
    <g transform="translate(480.0, 200.0)">
      <rect id="ITEM_1_ACCENT_BG" x="-400" y="-180.0" width="800" height="395.0" rx="24" fill="var(--accent-7)" fill-opacity="1.0"/>
      <rect id="ITEM_1_BG" x="-400" y="-180.0" width="800" height="395.0" rx="24" fill="var(--panel)" stroke="var(--accent-1)" filter="url(#svgd1203a16-shadow)" stroke-width="3"/>
      <rect x="-388" y="-168.0" width="776" height="371.0" rx="22" fill="url(#svgd1203a16-myth-card-sheen)" opacity="0.92"/>
      <circle id="ITEM_1_PAD" cx="-330" cy="-100" r="50" fill="var(--icon-pad-bg)" stroke="var(--background)" stroke-width="2" stroke-opacity="0.65" opacity="0.94" fill-opacity="0.9"/>
      <circle id="ITEM_1_PAD_INNER" cx="-330" cy="-100" r="39.00" fill="var(--accent-7)" fill-opacity="0.22"/>
      <circle cx="-330" cy="-100" r="36" fill="none" stroke="var(--accent-1)" stroke-width="3" stroke-dasharray="6 4"/>
      <g id="ITEM_1_ICON" transform="translate(-360, -130)" data-icon-size="60" stroke-dasharray="6 4">
        <g transform="translate(-10.585365853658539,-12.170731707317074) scale(3.3821138211382116)">
          <path d="M20.68,118.08L20.68,128L107.59,128L107.59,118.08C107.59,102.86 85.93,95.13 64.14,95.15C42.48,95.18 20.68,101.95 20.68,118.08Z" style="fill:#da4105;fill-rule:nonzero;"/>
          <path d="M71.19,97.66L56.82,97.66L56.82,104.56C56.82,107.68 59.74,110.21 63.35,110.21L64.66,110.21C68.27,110.21 71.19,107.68 71.19,104.56L71.19,97.66Z" style="fill:#e49800;fill-rule:nonzero;"/>
          <path d="M62.74,67.13C62.74,67.13 67.4,67.94 67.4,72.96C67.4,77.39 64,79.13 60.6,79.13L60.6,67.13L62.74,67.13Z" style="fill:#e39400;fill-rule:nonzero;"/>
          <path d="M65.26,67.13C65.26,67.13 60.6,67.94 60.6,72.96C60.6,77.39 64,79.13 67.4,79.13L67.4,67.13L65.26,67.13Z" style="fill:#e39400;fill-rule:nonzero;"/>
          <path d="M64,34.26C43.92,34.26 38.66,49.83 38.66,71.7C38.66,94.38 53.24,100.24 64,100.24C74.6,100.24 89.34,94.54 89.34,71.7C89.34,49.83 84.08,34.26 64,34.26Z" style="fill:#fac01b;fill-rule:nonzero;"/>
          <path d="M67.39,73.73C67.39,75.99 65.88,77.82 64.01,77.82C62.14,77.82 60.62,75.99 60.62,73.73C60.62,71.47 62.14,69.64 64.01,69.64C65.88,69.64 67.39,71.47 67.39,73.73" style="fill:#444;fill-rule:nonzero;"/>
          <path d="M60.61,73.73C60.61,75.99 62.12,77.82 64,77.82C65.87,77.82 67.39,75.99 67.39,73.73C67.39,71.47 65.87,69.64 64,69.64C62.12,69.64 60.61,71.47 60.61,73.73" style="fill:#444;fill-rule:nonzero;"/>
          <path d="M71.33,87.55L56.67,87.55C55.83,87.55 55.47,88.12 56.02,88.96C56.8,90.15 59.69,92.42 64,92.42C68.31,92.42 71.2,90.14 71.98,88.96C72.53,88.11 72.17,87.55 71.33,87.55Z" style="fill:#513f35;fill-rule:nonzero;"/>
          <path d="M67.54,81.32C66.29,81.67 65,81.84 64,81.84C63,81.84 61.71,81.67 60.46,81.31C59.93,81.16 59.72,81.66 59.91,82C60.31,82.7 61.9,84.1 64,84.1C66.1,84.1 67.7,82.69 68.09,82C68.29,81.67 68.08,81.16 67.54,81.32Z" style="fill:#e39400;fill-rule:nonzero;"/>
          <path d="M65.29,128L63.29,128L63.29,104.12C63.29,103.57 63.74,103.12 64.29,103.12C64.84,103.12 65.29,103.57 65.29,104.12L65.29,128Z" style="fill:#fff;fill-rule:nonzero;"/>
          <path d="M64.56,31.41C64.56,31.41 64.17,31.4 64,31.4C63.83,31.4 63.44,31.41 63.44,31.41C41.77,31.83 35.24,44.87 35.24,53.91C35.24,62.7 35.25,69.15 35.25,69.15C35.25,69.15 35.59,68.79 36.23,68.3C36.91,67.77 37.66,67.47 37.66,67.47L38.75,74.81L45.97,59.72C46.01,59.63 46.11,59.57 46.22,59.58L50.5,60.06C54.8,60.54 59.12,60.77 63.44,60.78L63.44,60.79L64,60.79C64.19,60.79 64.37,60.8 64.56,60.79L64.56,60.78C68.88,60.77 73.2,60.54 77.5,60.06L81.78,59.58C81.88,59.57 81.98,59.62 82.03,59.72L89.25,74.81L90.34,67.47C90.34,67.47 91.09,67.77 91.77,68.3C92.41,68.8 92.75,69.15 92.75,69.15C92.75,69.15 92.76,62.69 92.76,53.91C92.77,44.86 86.23,31.83 64.56,31.41Z" style="fill:#6d4c41;fill-rule:nonzero;"/>
          <path d="M49.96,105.5C57.79,102 53.81,93.87 45.96,95.83C40.63,97.16 29.64,99.35 25.29,99.16C17.46,98.83 15.21,106.19 17.46,109.66C23.62,119.17 42.31,108.91 49.96,105.5ZM78.04,105.5C70.21,102 74.19,93.87 82.04,95.83C87.37,97.16 98.36,99.35 102.71,99.16C110.54,98.83 112.79,106.19 110.54,109.66C104.38,119.17 85.69,108.91 78.04,105.5Z" style="fill:#444;fill-rule:nonzero;"/>
          <path d="M74.35,98.27C72.06,99.06 68.75,99.89 66.66,100.24C65.37,100.46 64.34,101.6 64,102.9C63.66,101.6 62.64,100.46 61.34,100.24C59.25,99.88 55.98,98.78 53.64,98.16C52.31,97.81 50.9,97.27 50.9,100.26L50.9,108.42C50.9,109.1 51.29,109.74 51.93,110.08C54.25,111.29 73.74,111.29 76.06,110.08C76.71,109.74 77.09,109.1 77.09,108.42L77.09,100.26C77.1,95.72 75.79,97.77 74.35,98.27Z" style="fill:#444;fill-rule:nonzero;"/>
          <path d="M64,5.91C57.67,5.91 33.13,6.18 29.3,24.36C27.14,34.63 26.21,63.03 26.65,68.64C27.53,79.91 31.91,83.49 45.25,87.96C62.09,93.6 64,92.74 64,92.74L64,5.91ZM64,5.91C70.33,5.91 94.87,6.18 98.7,24.36C100.86,34.63 101.79,63.03 101.35,68.64C100.47,79.91 96.09,83.49 82.75,87.96C65.91,93.6 64,92.74 64,92.74L64,5.91Z" style="fill:#444;fill-rule:nonzero;"/>
          <path d="M34.53,68.3C34.53,68.3 34.52,61.65 34.52,52.59C34.52,43.12 41.46,30.01 64.69,30.01C80.9,30.01 86.96,36.42 86.96,40.7C86.96,40.7 92.98,41.78 93.57,49.49C93.98,54.91 93.45,67.93 93.45,67.93C93.45,67.93 92.8,67.35 92.06,67.01C91.67,66.83 91.27,66.75 91.27,66.75L90.18,74.18L82.12,58.57C82.07,58.48 81.97,58.42 81.87,58.44L78.6,58.83C69.19,59.94 59.67,59.98 50.25,58.93L45.84,58.44C45.736,58.429 45.635,58.485 45.59,58.58L38.15,74.13L37.02,66.56C37.02,66.56 36.25,66.87 35.55,67.41C35.19,67.683 34.849,67.98 34.53,68.3Z" style="fill:#6d4c41;fill-rule:nonzero;"/>
          <path d="M90.32,66.22C90.32,66.22 95.12,67.05 95.12,72.22C95.12,76.78 91.62,78.58 88.11,78.58L88.11,66.22L90.32,66.22ZM37.93,66.22C37.93,66.22 33.13,67.05 33.13,72.22C33.13,76.78 36.63,78.58 40.14,78.58L40.14,66.22L37.93,66.22Z" style="fill:#e59600;fill-rule:nonzero;"/>
          <path d="M64.12,32.35C43.42,32.35 38,48.4 38,70.94C38,94.31 53.02,100.36 64.12,100.36C75.05,100.36 90.24,94.49 90.24,70.94C90.24,48.39 84.82,32.35 64.12,32.35Z" style="fill:#fcc21b;fill-rule:nonzero;"/>
          <path d="M71.6,86.5L56.64,86.5C55.78,86.5 55.41,87.08 55.98,87.94C56.77,89.15 59.72,91.47 64.12,91.47C68.52,91.47 71.47,89.14 72.26,87.94C72.83,87.08 72.46,86.5 71.6,86.5Z" style="fill:#4c3734;fill-rule:nonzero;"/>
          <path d="M71.6,86.5L56.64,86.5C55.78,86.5 55.41,87.08 55.98,87.94C56.77,89.15 59.72,91.47 64.12,91.47C68.52,91.47 71.47,89.14 72.26,87.94C72.83,87.08 72.46,86.5 71.6,86.5Z" style="fill:#513f35;fill-rule:nonzero;"/>
          <path d="M67.74,80.14C66.47,80.5 65.15,80.68 64.13,80.68C63.11,80.68 61.79,80.5 60.52,80.14C59.98,79.99 59.76,80.5 59.96,80.84C60.36,81.55 61.99,82.98 64.14,82.98C66.29,82.98 67.91,81.55 68.32,80.84C68.5,80.5 68.28,79.99 67.74,80.14Z" style="fill:#e59600;fill-rule:nonzero;"/>
          <path d="M55.61,72.41C55.61,74.71 54.07,76.58 52.16,76.58C50.25,76.58 48.7,74.71 48.7,72.41C48.7,70.1 50.25,68.23 52.16,68.23C54.07,68.23 55.61,70.1 55.61,72.41M72.63,72.41C72.63,74.71 74.17,76.58 76.09,76.58C78,76.58 79.55,74.71 79.55,72.41C79.55,70.1 78,68.23 76.09,68.23C74.17,68.23 72.63,70.1 72.63,72.41" style="fill:#444;fill-rule:nonzero;"/>
          <path d="M38.01,72.4L36.63,63.9C36.63,63.9 33.64,31.15 64.83,31.15C96.02,31.15 91.17,65.32 91.17,65.32L90.22,72.39L82.12,58.67C82.12,58.67 66.72,59.91 46.72,58.41L38.01,72.4Z" style="fill:#6d4c41;fill-rule:nonzero;"/>
          <path d="M-30.247,56.753C-31.008,57.359 40.038,49.239 39.912,51.09C40.619,51.95 41.019,53.828 40.784,53.657C40.428,53.399 40.082,53.12 39.757,52.82C39.409,55.929 38.818,57.787 38.818,57.787C38.818,57.787 38.409,57.359 37.629,56.753C36.789,56.109 35.872,55.738 35.872,55.738C37.097,61.271 38.139,70.122 35.872,73.95C32.182,70.854 16.83,49.753 16.501,50.053C16.501,50.053 -3.695,50.832 -4.498,51.992C-4.558,52.078 -5.133,52.919 -5.286,52.856C-5.724,52.673 -6.384,51.254 -6.659,50.854C-7.69,49.354 -21.508,67.049 -28.492,73.95C-30.293,69.911 -30.016,60.707 -28.492,55.738C-28.492,55.738 -29.429,56.109 -30.247,56.753Z" style="fill:#6d4c41;fill-rule:nonzero;"/>
          <path d="M38.01,68.93C38.01,68.93 44.85,96.14 64.13,96.14M90.24,68.93C90.24,68.93 83.4,96.14 64.12,96.14" style="fill:none;fill-rule:nonzero;stroke:#444;stroke-width:4px;"/>
          <path d="M45.9,10.12C39.95,12.79 34.37,17.35 34.37,25.15L31.45,71.45C31.45,73.9 33.4,75.4 35.83,74.9C45.12,72.98 54.56,72.02 64,72.02L64,5.91C56.69,5.91 52.57,7.13 45.9,10.12ZM82.1,10.12C88.05,12.79 93.63,17.35 93.63,25.15L96.55,71.45C96.55,73.9 94.6,75.4 92.17,74.9C82.88,72.98 73.44,72.02 64,72.02L64,5.91C71.31,5.91 75.43,7.13 82.1,10.12Z" style="fill:#444;fill-rule:nonzero;"/>
          <circle cx="70.46" cy="118.3" r="2.38" style="fill:#fff;"/>
          <path d="M72.83,127.97C72.83,126.66 71.77,125.59 70.45,125.59C69.13,125.59 68.07,126.65 68.07,127.97L68.07,128L72.81,128C72.83,127.99 72.83,127.98 72.83,127.97Z" style="fill:#fff;fill-rule:nonzero;"/>
          <path d="M90.18,121.43L92.51,121.43L92.51,128L90.18,128L90.18,121.43ZM35.49,121.43L37.82,121.43L37.82,128L35.49,128L35.49,121.43Z" style="fill-opacity:0.54;fill-rule:nonzero;"/>
        </g>
      </g>
      <text id="ITEM_1_HEAD" x="0.0" y="-130.0" text-anchor="middle" font-weight="bold" font-size="32" fill="var(--accent-7)" data-bg-id="ITEM_1_BG" fill-opacity="1.0" style="font-size: 30px; font-family: Inter, Segoe UI, Kalam, Roboto, Helvetica, Arial, sans-serif; font-weight: 700; letter-spacing:-0.4px;" data-final-font-size="30">
        <tspan x="0.0" dy="41.85px">Supporting Factors</tspan>
      </text>
      <rect id="ITEM_1_HEAD_FRAME" x="-310" y="-130" width="620" height="60" fill="none"/>
      <text id="ITEM_1_BODY" x="0.0" y="-50.0" text-anchor="middle" font-size="24" fill="var(--primary-text)" opacity="0.88" data-bg-id="ITEM_1_BG" style="font-size: 26px; font-family: Inter, Segoe UI, Kalam, Roboto, Helvetica, Arial, sans-serif; font-weight: 400;" data-final-font-size="26">
        <tspan x="0.0" dy="61.28px">Multiple witnesses and specific military location</tspan>
        <tspan x="0.0" dy="29.90px">context provide weight</tspan>
      </text>
      <rect id="ITEM_1_BODY_FRAME" x="-310" y="-50" width="620" height="230" fill="none"/>
    </g>
    <g transform="translate(1440.0, 200.0)">
      <rect id="ITEM_2_ACCENT_BG" x="-400" y="-180.0" width="800" height="395.0" rx="24" fill="var(--accent-2)" fill-opacity="1.0"/>
      <rect id="ITEM_2_BG" x="-400" y="-180.0" width="800" height="395.0" rx="24" fill="var(--panel)" stroke="var(--accent-2)" filter="url(#svgd1203a16-shadow)" stroke-width="3"/>
      <rect x="-388" y="-168.0" width="776" height="371.0" rx="22" fill="url(#svgd1203a16-myth-card-sheen)" opacity="0.92"/>
      <circle id="ITEM_2_PAD" cx="330" cy="-100" r="50" fill="var(--icon-pad-bg)" stroke="var(--background)" stroke-width="2" stroke-opacity="0.65" opacity="0.94" fill-opacity="0.9"/>
      <circle id="ITEM_2_PAD_INNER" cx="330" cy="-100" r="39.00" fill="var(--accent-2)" fill-opacity="0.22"/>
      <circle cx="330" cy="-100" r="36" fill="none" stroke="var(--accent-2)" stroke-width="3" stroke-dasharray="6 4"/>
      <g id="ITEM_2_ICON" transform="translate(300, -130)" data-icon-size="60" stroke-dasharray="6 4">
        <g transform="translate(-12.305084745762713,-12.305084745762713) scale(3.5254237288135593)" vector-effect="non-scaling-stroke" stroke-width="2.43" stroke-linecap="round" stroke-linejoin="round" stroke-opacity="1.0">
          <path d="M19.07 4.93A10 10 0 0 0 6.99 3.34" vector-effect="non-scaling-stroke" fill="none" stroke="#f1f5f9"/>
          <path d="M4 6h.01" vector-effect="non-scaling-stroke" fill="none" stroke="#f1f5f9"/>
          <path d="M2.29 9.62A10 10 0 1 0 21.31 8.35" vector-effect="non-scaling-stroke" fill="none" stroke="#f1f5f9"/>
          <path d="M16.24 7.76A6 6 0 1 0 8.23 16.67" vector-effect="non-scaling-stroke" fill="none" stroke="#f1f5f9"/>
          <path d="M12 18h.01" vector-effect="non-scaling-stroke" fill="none" stroke="#f1f5f9"/>
          <path d="M17.99 11.66A6 6 0 0 1 15.77 16.67" vector-effect="non-scaling-stroke" fill="none" stroke="#f1f5f9"/>
          <circle cx="12" cy="12" r="2" vector-effect="non-scaling-stroke" fill="none" stroke="#f1f5f9"/>
          <path d="m13.41 10.59 5.66-5.66" vector-effect="non-scaling-stroke" fill="none" stroke="#f1f5f9"/>
        </g>
      </g>
      <text id="ITEM_2_HEAD" x="0.0" y="-130.0" text-anchor="middle" font-weight="bold" font-size="32" fill="var(--primary-text)" data-bg-id="ITEM_2_BG" fill-opacity="1.0" style="font-size: 30px; font-family: Inter, Segoe UI, Kalam, Roboto, Helvetica, Arial, sans-serif; font-weight: 700; letter-spacing:-0.4px;" data-final-font-size="30">
        <tspan x="0.0" dy="41.85px">Evidentiary Gaps</tspan>
      </text>
      <rect id="ITEM_2_HEAD_FRAME" x="-310" y="-130" width="620" height="60" fill="none"/>
      <text id="ITEM_2_BODY" x="0.0" y="-50.0" text-anchor="middle" font-size="24" fill="var(--primary-text)" opacity="0.88" data-bg-id="ITEM_2_BG" style="font-size: 26px; font-family: Inter, Segoe UI, Kalam, Roboto, Helvetica, Arial, sans-serif; font-weight: 400;" data-final-font-size="26">
        <tspan x="0.0" dy="61.28px">Lack of radar data and official Ministry files</tspan>
        <tspan x="0.0" dy="29.90px">weakens claims</tspan>
      </text>
      <rect id="ITEM_2_BODY_FRAME" x="-310" y="-50" width="620" height="230" fill="none"/>
    </g>
    <g transform="translate(480.0, 600.0)">
      <rect id="ITEM_3_ACCENT_BG" x="-400" y="-180.0" width="800" height="395.0" rx="24" fill="var(--accent-3)" fill-opacity="0.15"/>
      <rect id="ITEM_3_BG" x="-400" y="-180.0" width="800" height="395.0" rx="24" fill="var(--panel)" stroke="var(--accent-3)" filter="url(#svgd1203a16-shadow)" stroke-width="3"/>
      <rect x="-388" y="-168.0" width="776" height="371.0" rx="22" fill="url(#svgd1203a16-myth-card-sheen)" opacity="0.92"/>
      <circle id="ITEM_3_PAD" cx="-330" cy="-100" r="50" fill="var(--icon-pad-bg)" stroke="var(--background)" stroke-width="2" stroke-opacity="0.65" opacity="0.94"/>
      <circle id="ITEM_3_PAD_INNER" cx="-330" cy="-100" r="39.00" fill="var(--accent-3)" fill-opacity="0.22"/>
      <circle cx="-330" cy="-100" r="36" fill="none" stroke="var(--accent-3)" stroke-width="3" stroke-dasharray="6 4"/>
      <g id="ITEM_3_ICON" transform="translate(-360, -130)" data-icon-size="60" stroke-dasharray="6 4">
        <g transform="translate(-14.57142857142857,-14.571428571428571) scale(2.7857142857142856)">
          <path d="M8 26H27V4C27 2.89543 26.1046 2 25 2H8V26Z" fill="#533566"/>
          <path d="M6 27H27V29H6V27Z" fill="#D3D3D3"/>
          <path d="M12.5 7C12.5 6.44772 12.9477 6 13.5 6H18.5C19.0523 6 19.5 6.44772 19.5 7V9C19.5 9.55228 19.0523 10 18.5 10H13.5C12.9477 10 12.5 9.55228 12.5 9V7Z" fill="white"/>
          <path d="M6.5 2C5.67157 2 5 2.67157 5 3.5V28H6C6 27.4477 6.44772 27 7 27H8V2H6.5Z" fill="#321B41"/>
          <path d="M6.5 26C5.67157 26 5 26.6716 5 27.5V28.5C5 29.3284 5.67157 30 6.5 30H25.5C26.1531 30 26.7087 29.5826 26.9146 29H7C6.44772 29 6 28.5523 6 28C6 27.4477 6.44772 27 7 27H27V26H6.5Z" fill="#6B438B"/>
          <path d="M23 2H24V30H23V2Z" fill="#6B438B"/>
        </g>
      </g>
      <text id="ITEM_3_HEAD" x="0.0" y="-130.0" text-anchor="middle" font-weight="bold" font-size="32" fill="var(--accent-3)" data-bg-id="ITEM_3_BG" style="font-size: 30px; font-family: Inter, Segoe UI, Kalam, Roboto, Helvetica, Arial, sans-serif; font-weight: 700; letter-spacing:-0.4px;" data-final-font-size="30">
        <tspan x="0.0" dy="41.85px">Memory Distortion</tspan>
      </text>
      <rect id="ITEM_3_HEAD_FRAME" x="-310" y="-130" width="620" height="60" fill="none"/>
      <text id="ITEM_3_BODY" x="0.0" y="-50.0" text-anchor="middle" font-size="24" fill="var(--primary-text)" opacity="0.88" data-bg-id="ITEM_3_BG" style="font-size: 26px; font-family: Inter, Segoe UI, Kalam, Roboto, Helvetica, Arial, sans-serif; font-weight: 400;" data-final-font-size="26">
        <tspan x="0.0" dy="61.28px">Late retellings and family memories can</tspan>
        <tspan x="0.0" dy="29.90px">reshape original details</tspan>
      </text>
      <rect id="ITEM_3_BODY_FRAME" x="-310" y="-50" width="620" height="230" fill="none"/>
    </g>
    <g transform="translate(1440.0, 600.0)">
      <rect id="ITEM_4_ACCENT_BG" x="-400" y="-180.0" width="800" height="395.0" rx="24" fill="var(--accent-4)" fill-opacity="0.15"/>
      <rect id="ITEM_4_BG" x="-400" y="-180.0" width="800" height="395.0" rx="24" fill="var(--panel)" stroke="var(--accent-4)" filter="url(#svgd1203a16-shadow)" stroke-width="3"/>
      <rect x="-388" y="-168.0" width="776" height="371.0" rx="22" fill="url(#svgd1203a16-myth-card-sheen)" opacity="0.92"/>
      <circle id="ITEM_4_PAD" cx="330" cy="-100" r="50" fill="var(--icon-pad-bg)" stroke="var(--background)" stroke-width="2" stroke-opacity="0.65" opacity="0.94"/>
      <circle id="ITEM_4_PAD_INNER" cx="330" cy="-100" r="39.00" fill="var(--accent-4)" fill-opacity="0.22"/>
      <circle cx="330" cy="-100" r="36" fill="none" stroke="var(--accent-4)" stroke-width="3" stroke-dasharray="6 4"/>
      <g id="ITEM_4_ICON" transform="translate(300, -130)" data-icon-size="60" stroke-dasharray="6 4">
        <g transform="translate(-15.902654867256636,-13.831858407079647) scale(2.7610619469026547)">
          <path d="M16.25 29.25C16.25 29.6642 15.9143 30 15.5 30C15.0858 30 14.75 29.6642 14.75 29.25V18.2847L6.35413 29.6945C6.10863 30.0281 5.63916 30.0996 5.30554 29.8541C4.97192 29.6086 4.90047 29.1391 5.14597 28.8055L13.8421 16.9877C13.3669 16.9119 13 16.4964 13 16C13 15.4505 13.4497 15 13.9983 15H14.75V11.75C14.75 11.3358 15.0858 11 15.5 11C15.9143 11 16.25 11.3358 16.25 11.75V15H17.0018C17.5504 15 18 15.4505 18 16C18 16.421 17.7361 16.7839 17.366 16.9306L26.1041 28.8055C26.3496 29.1391 26.2782 29.6086 25.9446 29.8541C25.6109 30.0996 25.1415 30.0281 24.896 29.6945L16.25 17.9449V29.25Z" fill="#7167A4"/>
          <path d="M3.22683 4.27809C2.6088 5.92946 3.30622 7.78583 4.80973 8.60757L5.74923 8.95918L7.99999 8.00013L8.99999 4.00013L8.19939 2.40199L7.26328 2.05165C5.5897 1.68436 3.84485 2.62671 3.22683 4.27809Z" fill="#AEDDFF"/>
          <path d="M22.8343 8.94678L27.5555 10.7137L29 13.0001L28 15.0001L25.7687 15.3837L21.0817 13.6296L20 10.5001L22.8343 8.94678Z" fill="#D3D3D3"/>
          <path d="M8.59557 3.94216L11.9373 3.80078L23.1846 8.01009L20.731 14.566L9.48157 10.3559L7.48633 7.72365L8.59557 3.94216Z" fill="#BEBEBE"/>
          <path d="M11.9459 3.80389L8.19965 2.40186L5.74609 8.95777L9.49233 10.3598L11.9459 3.80389Z" fill="#5235A6"/>
          <path d="M29.39 11.4001L27.5169 10.6991L25.7644 15.3819L27.6375 16.0829C28.1547 16.2765 28.731 16.0141 28.9246 15.4969L29.9761 12.6872C30.1697 12.1699 29.9073 11.5937 29.39 11.4001Z" fill="#5235A6"/>
        </g>
      </g>
      <text id="ITEM_4_HEAD" x="0.0" y="-130.0" text-anchor="middle" font-weight="bold" font-size="32" fill="var(--primary-text)" data-bg-id="ITEM_4_BG" style="font-size: 30px; font-family: Inter, Segoe UI, Kalam, Roboto, Helvetica, Arial, sans-serif; font-weight: 700; letter-spacing:-0.4px;" data-final-font-size="30">
        <tspan x="0.0" dy="41.85px">Conventional Explanations</tspan>
      </text>
      <rect id="ITEM_4_HEAD_FRAME" x="-310" y="-130" width="620" height="60" fill="none"/>
      <text id="ITEM_4_BODY" x="0.0" y="-50.0" text-anchor="middle" font-size="24" fill="var(--primary-text)" opacity="0.88" data-bg-id="ITEM_4_BG" style="font-size: 26px; font-family: Inter, Segoe UI, Kalam, Roboto, Helvetica, Arial, sans-serif; font-weight: 400;" data-final-font-size="26">
        <tspan x="0.0" dy="61.28px">Meteor fragments and satellite passes offer plausible</tspan>
        <tspan x="0.0" dy="29.90px">scientific answers</tspan>
      </text>
      <rect id="ITEM_4_BODY_FRAME" x="-310" y="-50" width="620" height="230" fill="none"/>
    </g>
  </g>
</svg>
