<?xml version='1.0' encoding='utf-8'?>
<svg xmlns="http://www.w3.org/2000/svg" width="1920" height="1080" viewBox="0 0 1920 1080" data-theme="light">
  <style>
        @font-face {
            font-family: 'Inter';
            src: url('assets/fonts/Inter-Regular.ttf') format('truetype');
            font-weight: 400;
            font-style: normal;
            font-display: swap;
        }
        @font-face {
            font-family: 'Inter';
            src: url('assets/fonts/Inter-Bold.ttf') format('truetype');
            font-weight: 600;
            font-style: normal;
            font-display: swap;
        }
        @font-face {
            font-family: 'Inter';
            src: url('assets/fonts/Inter-Bold.ttf') format('truetype');
            font-weight: 800;
            font-style: normal;
            font-display: swap;
        }
        
:root {
    --background: #f8fafc;
    --panel: #ffffff;
    --primary-text: #0f172a;
    --muted-text: #64748b;
    --inverse-text: #ffffff;
    --border: #e2e8f0;
    --shadow-color: #000000;
    --icon-pad-bg: #1e293b;
    --art-glow: #0891b2;
    --art-glow-opacity: 0.10;
    --art-sheen: #ffffff;
    --art-sheen-opacity: 0.34;
    --art-shadow: #0f172a;
    --art-shadow-opacity: 0.14;
    --art-muted-line: #94a3b8;
    --art-panel-tint: #f1f5f9;
    --font-family: 'Inter', 'Segoe UI', 'Kalam', Roboto, Helvetica, Arial, sans-serif;
    --radius-xl: 16px;
    --font-family-headline: 'Inter', 'Segoe UI', 'Kalam', Roboto, Helvetica, Arial, sans-serif;
    --font-family-body: 'Inter', 'Segoe UI', 'Kalam', Roboto, Helvetica, Arial, sans-serif;
    --font-heading: 'Inter', 'Segoe UI', 'Kalam', Roboto, Helvetica, Arial, sans-serif;
    --font-body: 'Inter', 'Segoe UI', 'Kalam', Roboto, Helvetica, Arial, sans-serif;
    --font-size-h1: 56px;
    --font-size-h2: 40px;
    --font-size-h3: 28px;
    --font-size-body: 24px;
    --font-size-caption: 18px;
    --secondary-text: var(--muted-text);
    --panel-border: var(--border);
    --font-weight-normal: 400;
    --font-weight-medium: 500;
    --font-weight-semibold: 600;
    --font-weight-bold: 700;
    --spacing-gutter-pct: 0.07;
    --spacing-top-pct: 0.15;
    --spacing-bottom-pct: 0.07;
    --spacing-title-y-pct: 0.055;
    --accent-1: #d97706;
    --accent-2: #ea580c;
    --accent-3: #dc2626;
    --accent-4: #65a30d;
    --accent-5: #16a34a;
    --accent-6: #92400e;
}
:root[data-theme="dark"] {
    --background: #0f172a;
    --panel: #1e293b;
    --primary-text: #f1f5f9;
    --muted-text: #94a3b8;
    --inverse-text: #0f172a;
    --border: #334155;
    --shadow-color: #000000;
    --icon-pad-bg: #1e293b;
    --art-glow: #7dd3fc;
    --art-glow-opacity: 0.18;
    --art-sheen: #ffffff;
    --art-sheen-opacity: 0.18;
    --art-shadow: #000000;
    --art-shadow-opacity: 0.28;
    --art-muted-line: #64748b;
    --art-panel-tint: #1e293b;
    --accent-1: #fbbf24;
    --accent-2: #fb923c;
    --accent-3: #f87171;
    --accent-4: #a3e635;
    --accent-5: #4ade80;
    --accent-6: #d4a574;
}
:root[data-theme="light"] {
    --background: #f8fafc;
    --panel: #ffffff;
    --primary-text: #0f172a;
    --muted-text: #64748b;
    --inverse-text: #ffffff;
    --border: #e2e8f0;
    --shadow-color: #000000;
    --icon-pad-bg: #1e293b;
    --art-glow: #0891b2;
    --art-glow-opacity: 0.10;
    --art-sheen: #ffffff;
    --art-sheen-opacity: 0.34;
    --art-shadow: #0f172a;
    --art-shadow-opacity: 0.14;
    --art-muted-line: #94a3b8;
    --art-panel-tint: #f1f5f9;
    --accent-1: #d97706;
    --accent-2: #ea580c;
    --accent-3: #dc2626;
    --accent-4: #65a30d;
    --accent-5: #16a34a;
    --accent-6: #92400e;
}</style>
  <rect x="0" y="0" width="1.92E+3" height="1.08E+3" fill="#252a34" stroke="none" id="programmatic_background"/>
  <line id="HEADER_DECOR" x1="960.0" x2="1080.0" y1="90.0" y2="90.0" stroke="var(--accent-1)" stroke-width="6" stroke-linecap="round"/>
  <defs>
    <pattern id="svge211c016-napkin-hatch" patternUnits="userSpaceOnUse" width="12" height="12">
      <path d="M -3 12 L 12 -3 M 0 15 L 15 0" fill="none" stroke="var(--primary-text)" stroke-width="1" stroke-opacity="0.05"/>
    </pattern>
    <radialGradient id="svge211c016-universal-edge-vignette" cx="50%" cy="50%" r="72%">
      <stop offset="0%" stop-color="var(--background)" stop-opacity="0"/>
      <stop offset="72%" stop-color="var(--background)" stop-opacity="0.12"/>
      <stop offset="100%" stop-color="var(--primary-text)" stop-opacity="0.08"/>
    </radialGradient>
    <linearGradient id="svge211c016-universal-surface-sheen" x1="0%" y1="0%" x2="100%" y2="100%">
      <stop offset="0%" stop-color="var(--art-sheen)" stop-opacity="var(--art-sheen-opacity)"/>
      <stop offset="46%" stop-color="var(--art-sheen)" stop-opacity="0.035"/>
      <stop offset="100%" stop-color="var(--art-panel-tint)" stop-opacity="0.14"/>
    </linearGradient>
    <radialGradient id="svge211c016-universal-icon-aura" cx="50%" cy="42%" r="64%">
      <stop offset="0%" stop-color="var(--art-glow)" stop-opacity="var(--art-glow-opacity)"/>
      <stop offset="100%" stop-color="var(--background)" stop-opacity="0"/>
    </radialGradient>
    <filter id="svge211c016-text-glow" x="-20%" y="-20%" width="140%" height="140%">
      <feDropShadow dx="0" dy="0" stdDeviation="2" flood-color="#000000" flood-opacity="0.4"/>
    </filter>
    <filter id="svge211c016-shadow" x="-30%" y="-30%" width="160%" height="160%">
      <feDropShadow dx="0" dy="2" stdDeviation="3" flood-color="#000000" flood-opacity="0.08"/>
      <feDropShadow dx="0" dy="6" stdDeviation="10" flood-color="#000000" flood-opacity="0.12"/>
    </filter>
    <marker id="svge211c016-arrowhead" markerWidth="10" markerHeight="7" refX="9" refY="3.5" orient="auto" markerUnits="strokeWidth">
      <polygon points="0 0, 10 3.5, 0 7" fill="var(--muted-text)" opacity="0.6"/>
    </marker>
  </defs>
  <rect width="100%" height="100%" fill="var(--background)" id="CANVAS_BG"/>
  <rect width="100%" height="100%" fill="url(#svge211c016-napkin-hatch)"/>
  <rect id="UNIVERSAL_EDGE_VIGNETTE" width="100%" height="100%" fill="url(#svge211c016-universal-edge-vignette)" opacity="0.62"/>
  <text id="TITLE" x="960.0" y="59" text-anchor="middle" font-weight="800" font-size="63" fill="#0f172a" style="font-size: 60px; font-family: Inter, Segoe UI, Kalam, Roboto, Helvetica, Arial, sans-serif; font-weight: 700; letter-spacing:-1.2px;" data-final-font-size="60">
    <tspan x="960.0" dy="68.00px">Zaragoza Aviation Context Layers</tspan>
  </text>
  <rect id="TITLE_FRAME" x="134" y="59" width="1652" height="103" fill="none"/>
  <g id="DIAGRAM_SCALER" transform="translate(50.3, 35.5) scale(0.95)">
    <g transform="translate(960.0, 165.0)">
      <g transform="translate(0.0, 0.0)">
        <rect id="ITEM_1_BG" x="-600" y="-30" width="1200" height="120" rx="12" fill="var(--accent-4)" stroke="var(--accent-1)" stroke-width="2" fill-opacity="1.0"/>
        <g transform="translate(0.0, 0.0)">
          <text id="ITEM_1_HEAD" font-weight="bold" font-size="30" fill="var(--primary-text)" x="-300.0" y="-25.0" data-bg-id="ITEM_1_BG" fill-opacity="1.0" style="font-size: 30px; font-family: Inter, Segoe UI, Kalam, Roboto, Helvetica, Arial, sans-serif; font-weight: 700; letter-spacing:-0.4px;" data-final-font-size="30">
            <tspan x="-300.0" dy="25.75px">Geopolitical Layer</tspan>
          </text>
          <rect id="ITEM_1_HEAD_FRAME" x="-300" y="-25" width="850" height="35" fill="none"/>
          <text id="ITEM_1_BODY" font-size="21" fill="var(--primary-text)" x="-300.0" y="15.0" data-bg-id="ITEM_1_BG" style="font-size: 26px; font-family: Inter, Segoe UI, Kalam, Roboto, Helvetica, Arial, sans-serif; font-weight: 400;" data-final-font-size="26">
            <tspan x="-300.0" dy="20.84px">1953 Spain-US agreement shaped</tspan>
            <tspan x="-300.0" dy="29.90px">the local landscape</tspan>
          </text>
          <rect id="ITEM_1_BODY_FRAME" x="-300" y="15" width="380" height="60" fill="none"/>
        </g>
        <circle id="ITEM_1_PAD" cx="-450.0" cy="60.0" r="50" fill="var(--icon-pad-bg)" stroke="var(--primary-text)" opacity="0.9" fill-opacity="0.9" stroke-width="2"/>
        <circle id="ITEM_1_PAD_INNER" cx="-450.0" cy="60.0" r="39.00" fill="var(--accent-4)" fill-opacity="0.22"/>
        <circle cx="-450.0" cy="60.0" r="40.0" fill="none" stroke="var(--accent-1)" stroke-width="3" stroke-dasharray="6 4"/>
        <g id="ITEM_1_ICON" transform="translate(-482.0, 28.0)" data-icon-size="64" stroke-dasharray="6 4">
          <g transform="translate(-22.394736842105264,-22.394736842105264) scale(5.473684210526316)" vector-effect="non-scaling-stroke" fill="#f1f5f9" fill-opacity="1.0" stroke="none">
            <path fill="#f1f5f9" d="M10.505 3.117a1 1 0 0 0-1.011 0l-6.01 3.52a1 1 0 0 0 .003 1.726l6.009 3.502a1 1 0 0 0 1.007 0l6.009-3.502a1 1 0 0 0 .001-1.727zM3.07 9.65l6.438 3.622a1 1 0 0 0 .98 0l6.438-3.622a1 1 0 0 1-.415 1.26l-6.01 3.502a1 1 0 0 1-1.006 0l-6.01-3.502a1 1 0 0 1-.415-1.26m0 2.453l6.438 3.622a1 1 0 0 0 .98 0l6.438-3.622a1 1 0 0 1-.415 1.26l-6.01 3.502a1 1 0 0 1-1.006 0l-6.01-3.502a1 1 0 0 1-.415-1.26" vector-effect="non-scaling-stroke" stroke="none"/>
          </g>
        </g>
      </g>
      <g transform="translate(0.0, 150.0)">
        <rect id="ITEM_2_BG" x="-600" y="-30" width="1200" height="120" rx="12" fill="var(--accent-5)" stroke="var(--accent-2)" stroke-width="2" fill-opacity="1.0"/>
        <g transform="translate(0.0, 0.0)">
          <text id="ITEM_2_HEAD" font-weight="bold" font-size="30" fill="var(--primary-text)" x="-300.0" y="-25.0" data-bg-id="ITEM_2_BG" fill-opacity="1.0" style="font-size: 30px; font-family: Inter, Segoe UI, Kalam, Roboto, Helvetica, Arial, sans-serif; font-weight: 700; letter-spacing:-0.4px;" data-final-font-size="30">
            <tspan x="-300.0" dy="25.75px">Infrastructure Layer</tspan>
          </text>
          <rect id="ITEM_2_HEAD_FRAME" x="-300" y="-25" width="850" height="35" fill="none"/>
          <text id="ITEM_2_BODY" font-size="21" fill="var(--primary-text)" x="-300.0" y="15.0" data-bg-id="ITEM_2_BG" style="font-size: 25px; font-family: Inter, Segoe UI, Kalam, Roboto, Helvetica, Arial, sans-serif; font-weight: 400;" data-final-font-size="25">
            <tspan x="-300.0" dy="20.50px">Major runway and facility</tspan>
            <tspan x="-300.0" dy="28.75px">upgrades followed the agreement</tspan>
          </text>
          <rect id="ITEM_2_BODY_FRAME" x="-300" y="15" width="380" height="60" fill="none"/>
        </g>
        <circle id="ITEM_2_PAD" cx="-450.0" cy="60.0" r="50" fill="var(--icon-pad-bg)" stroke="var(--primary-text)" opacity="0.9" fill-opacity="0.9" stroke-width="2"/>
        <circle id="ITEM_2_PAD_INNER" cx="-450.0" cy="60.0" r="39.00" fill="var(--accent-5)" fill-opacity="0.22"/>
        <circle cx="-450.0" cy="60.0" r="40.0" fill="none" stroke="var(--accent-1)" stroke-width="3" stroke-dasharray="6 4"/>
        <g id="ITEM_2_ICON" transform="translate(-482.0, 28.0)" data-icon-size="64" stroke-dasharray="6 4">
          <g transform="translate(-16.0,-16.0) scale(4.0)" vector-effect="non-scaling-stroke" stroke-width="2.48" stroke-linecap="round" stroke-linejoin="round" stroke-opacity="1.0">
            <path d="M6 20H3V6L12 4L21 6V20H18M6 20H18M6 20V16M18 20V16M6 12V8L18 8V12M6 12L18 12M6 12V16M18 12V16M6 16H18" stroke="#f1f5f9" vector-effect="non-scaling-stroke" fill="none"/>
          </g>
        </g>
      </g>
      <g transform="translate(0.0, 300.0)">
        <rect id="ITEM_3_BG" x="-600" y="-30" width="1200" height="120" rx="12" fill="var(--accent-6)" stroke="var(--accent-3)" stroke-width="2" fill-opacity="1.0"/>
        <g transform="translate(0.0, 0.0)">
          <text id="ITEM_3_HEAD" font-weight="bold" font-size="30" fill="var(--inverse-text)" x="-300.0" y="-25.0" data-bg-id="ITEM_3_BG" fill-opacity="1.0" style="font-size: 30px; font-family: Inter, Segoe UI, Kalam, Roboto, Helvetica, Arial, sans-serif; font-weight: 700; letter-spacing:-0.4px;" data-final-font-size="30">
            <tspan x="-300.0" dy="25.75px">Surveillance Layer</tspan>
          </text>
          <rect id="ITEM_3_HEAD_FRAME" x="-300" y="-25" width="850" height="35" fill="none"/>
          <text id="ITEM_3_BODY" font-size="21" fill="var(--inverse-text)" x="-300.0" y="15.0" data-bg-id="ITEM_3_BG" style="font-size: 26px; font-family: Inter, Segoe UI, Kalam, Roboto, Helvetica, Arial, sans-serif; font-weight: 400;" data-final-font-size="26">
            <tspan x="-300.0" dy="20.84px">Primary radar systems monitor</tspan>
            <tspan x="-300.0" dy="29.90px">non-cooperative aerial targets</tspan>
          </text>
          <rect id="ITEM_3_BODY_FRAME" x="-300" y="15" width="380" height="60" fill="none"/>
        </g>
        <circle id="ITEM_3_PAD" cx="-450.0" cy="60.0" r="50" fill="var(--icon-pad-bg)" stroke="var(--primary-text)" opacity="0.9" fill-opacity="0.9" stroke-width="2"/>
        <circle id="ITEM_3_PAD_INNER" cx="-450.0" cy="60.0" r="39.00" fill="var(--accent-6)" fill-opacity="0.22"/>
        <circle cx="-450.0" cy="60.0" r="40.0" fill="none" stroke="var(--accent-2)" stroke-width="3" stroke-dasharray="6 4"/>
        <g id="ITEM_3_ICON" transform="translate(-482.0, 28.0)" data-icon-size="64" stroke-dasharray="6 4">
          <g transform="translate(-10.666666666666664,-10.333333333333332) scale(0.16666666666666666)" vector-effect="non-scaling-stroke" fill="#f1f5f9" fill-opacity="1.0" stroke="none">
            <path fill="#f1f5f9" d="M352 21v18h39v16h18V39h39V21zm35 52l-40 30h106l-40-30zM69.48 120.5l-8.96 15.6l110.98 63.7l35.6 20.4l33.6-58.7l-77 13.1zM329 121v30h30v-30zm48 0v30h46v-30zm64 0v30h30v-30zm-103 48l34.5 46h55l34.5-46zm39 64v30h46v-30zm0 48v206h46V281zM68.52 329L34.3 375H359v-46zM25 393v94h30v-64h66v64h238v-94zm416 .5V487h46v-65.9zM160 439h48v18h-48zm96 0h48v18h-48zm-183 2v46h30v-46z" vector-effect="non-scaling-stroke" stroke="none"/>
          </g>
        </g>
      </g>
      <g transform="translate(0.0, 450.0)">
        <rect id="ITEM_4_BG" x="-600" y="-30" width="1200" height="120" rx="12" fill="var(--accent-1)" stroke="var(--accent-4)" stroke-width="2" fill-opacity="1.0"/>
        <g transform="translate(0.0, 0.0)">
          <text id="ITEM_4_HEAD" font-weight="bold" font-size="30" fill="var(--primary-text)" x="-300.0" y="-25.0" data-bg-id="ITEM_4_BG" fill-opacity="1.0" style="font-size: 30px; font-family: Inter, Segoe UI, Kalam, Roboto, Helvetica, Arial, sans-serif; font-weight: 700; letter-spacing:-0.4px;" data-final-font-size="30">
            <tspan x="-300.0" dy="25.75px">Archival Layer</tspan>
          </text>
          <rect id="ITEM_4_HEAD_FRAME" x="-300" y="-25" width="850" height="35" fill="none"/>
          <text id="ITEM_4_BODY" font-size="21" fill="var(--primary-text)" x="-300.0" y="15.0" data-bg-id="ITEM_4_BG" style="font-size: 26px; font-family: Inter, Segoe UI, Kalam, Roboto, Helvetica, Arial, sans-serif; font-weight: 400;" data-final-font-size="26">
            <tspan x="-300.0" dy="20.84px">National archive contains</tspan>
            <tspan x="-300.0" dy="29.90px">1,900 pages of UFO files</tspan>
          </text>
          <rect id="ITEM_4_BODY_FRAME" x="-300" y="15" width="380" height="60" fill="none"/>
        </g>
        <circle id="ITEM_4_PAD" cx="-450.0" cy="60.0" r="50" fill="var(--icon-pad-bg)" stroke="var(--primary-text)" opacity="0.9" fill-opacity="0.9" stroke-width="2"/>
        <circle id="ITEM_4_PAD_INNER" cx="-450.0" cy="60.0" r="39.00" fill="var(--accent-1)" fill-opacity="0.22"/>
        <circle cx="-450.0" cy="60.0" r="40.0" fill="none" stroke="var(--accent-3)" stroke-width="3" stroke-dasharray="6 4"/>
        <g id="ITEM_4_ICON" transform="translate(-482.0, 28.0)" data-icon-size="64" stroke-dasharray="6 4">
          <g transform="translate(-7.0,-7.0) scale(5.571428571428571)" vector-effect="non-scaling-stroke" stroke-width="2.48" stroke-linecap="round" stroke-linejoin="round" stroke-opacity="1.0">
            <path id="Vector" fill="none" d="M12.5 12.5v-5h-11v5c0 0.5523 0.44772 1 1 1h9c0.5523 0 1 -0.4477 1 -1Z" vector-effect="non-scaling-stroke" stroke="#f1f5f9"/>
            <path id="Subtract" fill="none" fill-rule="evenodd" d="M2.5 0.5h9c0.5523 0 1 0.447715 1 1v6h-11v-6c0 -0.552285 0.44772 -1 1 -1Z" clip-rule="evenodd" vector-effect="non-scaling-stroke" stroke="#f1f5f9"/>
            <path id="Vector_2" stroke="#f1f5f9" d="M11.5 0.5h-9c-0.55228 0 -1 0.447715 -1 1v11c0 0.5523 0.44772 1 1 1h9c0.5523 0 1 -0.4477 1 -1v-11c0 -0.552285 -0.4477 -1 -1 -1Z" vector-effect="non-scaling-stroke" fill="none"/>
            <path id="Vector_3" stroke="#f1f5f9" d="M1.5 4h11" vector-effect="non-scaling-stroke" fill="none"/>
            <path id="Vector_4" stroke="#f1f5f9" d="M1.5 7.5h11" vector-effect="non-scaling-stroke" fill="none"/>
            <path id="Vector_5" stroke="#f1f5f9" d="M7 7.5v6" vector-effect="non-scaling-stroke" fill="none"/>
            <path id="Vector_6" stroke="#f1f5f9" d="M9.5 10v1" vector-effect="non-scaling-stroke" fill="none" display="none"/>
            <path id="Vector_7" stroke="#f1f5f9" d="M4.5 10v1" vector-effect="non-scaling-stroke" fill="none" display="none"/>
          </g>
        </g>
      </g>
      <g transform="translate(0.0, 600.0)">
        <rect id="ITEM_5_BG" x="-600" y="-30" width="1200" height="120" rx="12" fill="var(--accent-2)" stroke="var(--accent-5)" stroke-width="2" fill-opacity="1.0"/>
        <g transform="translate(0.0, 0.0)">
          <text id="ITEM_5_HEAD" font-weight="bold" font-size="30" fill="var(--primary-text)" x="-300.0" y="-25.0" data-bg-id="ITEM_5_BG" fill-opacity="1.0" style="font-size: 30px; font-family: Inter, Segoe UI, Kalam, Roboto, Helvetica, Arial, sans-serif; font-weight: 700; letter-spacing:-0.4px;" data-final-font-size="30">
            <tspan x="-300.0" dy="25.75px">Atmospheric Layer</tspan>
          </text>
          <rect id="ITEM_5_HEAD_FRAME" x="-300" y="-25" width="850" height="35" fill="none"/>
          <text id="ITEM_5_BODY" font-size="21" fill="var(--primary-text)" x="-300.0" y="15.0" data-bg-id="ITEM_5_BG" style="font-size: 26px; font-family: Inter, Segoe UI, Kalam, Roboto, Helvetica, Arial, sans-serif; font-weight: 400;" data-final-font-size="26">
            <tspan x="-300.0" dy="20.84px">Ducting and haze affect visual</tspan>
            <tspan x="-300.0" dy="29.90px">and radar clarity</tspan>
          </text>
          <rect id="ITEM_5_BODY_FRAME" x="-300" y="15" width="380" height="60" fill="none"/>
        </g>
        <circle id="ITEM_5_PAD" cx="-450.0" cy="60.0" r="50" fill="var(--icon-pad-bg)" stroke="var(--primary-text)" opacity="0.9" fill-opacity="0.9" stroke-width="2"/>
        <circle id="ITEM_5_PAD_INNER" cx="-450.0" cy="60.0" r="39.00" fill="var(--accent-2)" fill-opacity="0.22"/>
        <circle cx="-450.0" cy="60.0" r="40.0" fill="none" stroke="var(--accent-4)" stroke-width="3" stroke-dasharray="6 4"/>
        <g id="ITEM_5_ICON" transform="translate(-482.0, 28.0)" data-icon-size="64" stroke-dasharray="6 4">
          <g transform="translate(-9.6,-9.600000000000001) scale(2.6)">
            <path d="M27.938 8.83821C24.0423 5.04133 17.8344 5.05797 13.9753 8.86406C13.4392 8.67001 12.8612 8.56433 12.26 8.56433C10.458 8.56433 8.87859 9.50994 7.98809 10.929C4.08596 11.1722 1 14.4106 1 18.3743C1 20.1277 1.61099 21.7416 2.62059 23.0183C3.99219 24.8117 6.14877 25.9643 8.58 25.9643H21.27C24.4212 25.9643 27.2042 24.4125 28.9045 22.0385C31.9165 18.083 31.5813 12.4038 27.9394 8.83964L27.938 8.83821Z" fill="#B4ACBC"/>
            <path d="M14.55 9.70434C18.01 6.15434 23.69 6.09434 27.24 9.55434C30.52 12.7643 30.82 17.8843 28.1 21.4443C26.58 23.5743 24.09 24.9643 21.27 24.9643H8.58C6.47 24.9643 4.6 23.9643 3.41 22.4043C2.53 21.2943 2 19.8943 2 18.3743C2 14.8043 4.89 11.9143 8.46 11.9143C8.50303 11.9143 8.54595 11.9148 8.58877 11.9156C9.22825 10.5277 10.6316 9.56433 12.26 9.56433C12.9685 9.56433 13.6345 9.74673 14.2134 10.0671C14.3215 9.94392 14.4337 9.82294 14.55 9.70434Z" fill="#F3EEF8"/>
          </g>
        </g>
      </g>
    </g>
  </g>
</svg>
